<svg xmlns="http://www.w3.org/2000/svg" width="1024" height="1024" viewBox="0 0 1024 1024" version="1.1"><path d="M 227 446.996 C 215.664 449.793, 210.895 452.230, 203.888 458.805 C 192.077 469.887, 186.462 482.910, 187.334 497.195 C 187.949 507.270, 190.776 513.261, 199.803 523.620 C 209.675 534.947, 210.379 535.058, 216.782 526.298 C 218.827 523.500, 221.944 519.434, 223.710 517.263 L 226.919 513.314 223.337 509.907 C 216.279 503.194, 213.319 492.947, 216.348 485.718 C 220.312 476.260, 227.605 471.829, 240.500 471.046 L 249.500 470.500 249.802 461 C 249.969 455.775, 249.836 450.038, 249.507 448.250 L 248.909 445 241.705 445.072 C 237.742 445.112, 231.125 445.978, 227 446.996 M 262.007 450.750 C 262.011 453.913, 262.296 459.484, 262.641 463.131 L 263.267 469.763 272.318 470.471 C 282.995 471.306, 291.772 473.818, 298 477.820 C 300.475 479.410, 307.587 485.501, 313.804 491.356 C 320.021 497.210, 325.534 502, 326.054 502 C 327.437 502, 327.178 493.503, 325.562 485.878 C 322.775 472.731, 316.094 463.277, 303.736 454.996 C 293.821 448.352, 281.999 445.024, 268.250 445.008 L 262 445 262.007 450.750 M 788.981 453.709 L 792.978 454.114 793.256 494.807 L 793.534 535.500 793.517 494.500 L 793.500 453.500 789.243 453.402 L 784.985 453.304 788.981 453.709 M 660.241 513.250 L 660 570 651.050 570 L 642.100 570 641.800 564.337 C 641.524 559.125, 641.380 558.821, 640 560.529 C 639.136 561.598, 639.030 562.066, 639.750 561.633 C 640.684 561.072, 641 562.160, 641 565.941 L 641 571 650.531 571 C 657.235 571, 660.205 570.629, 660.541 569.750 C 660.804 569.063, 660.899 543.300, 660.751 512.500 L 660.483 456.500 660.241 513.250 M 381.336 467 C 381.336 471.125, 381.513 472.813, 381.728 470.750 C 381.944 468.688, 381.944 465.313, 381.728 463.250 C 381.513 461.188, 381.336 462.875, 381.336 467 M 835 465.923 C 835 468.638, 834.195 470.871, 832.386 473.173 L 829.773 476.500 832.886 473.234 C 835.304 470.699, 836 469.077, 836 465.984 C 836 463.793, 835.775 462, 835.500 462 C 835.225 462, 835 463.765, 835 465.923 M 402.221 490.750 L 402 506 414.250 505.785 L 426.500 505.570 414.777 505.253 L 403.053 504.937 402.748 490.218 L 402.442 475.500 402.221 490.750 M 463.310 486.500 C 463.315 489.800, 463.502 491.029, 463.725 489.232 C 463.947 487.435, 463.943 484.735, 463.715 483.232 C 463.486 481.729, 463.304 483.200, 463.310 486.500 M 640.360 491 C 640.360 496.225, 640.529 498.363, 640.735 495.750 C 640.941 493.137, 640.941 488.863, 640.735 486.250 C 640.529 483.637, 640.360 485.775, 640.360 491 M 773.405 500.500 C 773.406 509.300, 773.559 512.766, 773.745 508.203 C 773.930 503.639, 773.929 496.439, 773.742 492.203 C 773.555 487.966, 773.404 491.700, 773.405 500.500 M 517.768 488.725 C 519.565 488.947, 522.265 488.943, 523.768 488.715 C 525.271 488.486, 523.800 488.304, 520.500 488.310 C 517.200 488.315, 515.971 488.502, 517.768 488.725 M 822.750 490.727 L 833 491.070 833 530.535 L 833 570 823.555 570 L 814.110 570 813.735 565.250 L 813.360 560.500 813.180 565.785 L 813 571.070 823.250 570.785 L 833.500 570.500 833.500 530.500 L 833.500 490.500 823 490.442 L 812.500 490.384 822.750 490.727 M 299.866 496.251 C 298.618 498.038, 295.967 501.525, 293.975 504 C 286.365 513.456, 286.425 512.956, 292.043 519.956 C 294.765 523.348, 297.261 527.333, 297.589 528.812 C 297.917 530.290, 298.386 532.246, 298.631 533.157 C 298.875 534.068, 298.569 536.826, 297.950 539.286 C 295.396 549.429, 285.855 555.762, 272.326 556.295 L 264.500 556.604 264.220 568.159 L 263.939 579.714 269.293 580.266 C 281.320 581.508, 298.276 577.546, 307.096 571.434 C 312.916 567.400, 319.516 558.621, 323.209 550 C 326.100 543.251, 326.426 541.494, 326.461 532.452 C 326.498 522.810, 326.347 522.094, 322.730 514.772 C 319.877 508.996, 317.325 505.642, 312.230 500.973 C 302.940 492.458, 302.604 492.330, 299.866 496.251 M 402.389 532.500 C 402.390 539.650, 402.550 542.444, 402.742 538.708 C 402.935 534.973, 402.934 529.123, 402.739 525.708 C 402.545 522.294, 402.387 525.350, 402.389 532.500 M 413.784 520.738 C 416.689 520.941, 421.189 520.939, 423.784 520.734 C 426.378 520.528, 424 520.363, 418.500 520.365 C 413 520.368, 410.878 520.536, 413.784 520.738 M 720.250 522.739 C 723.413 522.937, 728.587 522.937, 731.750 522.739 C 734.913 522.541, 732.325 522.378, 726 522.378 C 719.675 522.378, 717.087 522.541, 720.250 522.739 M 560.320 529 C 560.320 532.575, 560.502 534.038, 560.723 532.250 C 560.945 530.462, 560.945 527.538, 560.723 525.750 C 560.502 523.962, 560.320 525.425, 560.320 529 M 573.336 530 C 573.336 534.125, 573.513 535.813, 573.728 533.750 C 573.944 531.688, 573.944 528.313, 573.728 526.250 C 573.513 524.188, 573.336 525.875, 573.336 530 M 186.676 531.750 C 188.383 550.238, 195.252 563.044, 207.977 571.465 C 217.743 577.927, 222.442 579.238, 237.750 579.771 L 251 580.232 251 568.116 L 251 556 242.710 556 C 226.173 556, 217.241 551.954, 199.569 536.461 C 193.007 530.707, 187.302 526, 186.891 526 C 186.481 526, 186.383 528.587, 186.676 531.750 M 509.750 535.747 C 515.938 535.922, 526.063 535.922, 532.250 535.747 C 538.438 535.571, 533.375 535.428, 521 535.428 C 508.625 535.428, 503.563 535.571, 509.750 535.747 M 696.345 536.543 C 696.019 537.392, 696.034 538.367, 696.376 538.710 C 696.719 539.053, 697 538.591, 697 537.685 C 697 536.208, 699.470 536.006, 720.750 535.749 L 744.500 535.462 720.719 535.231 C 700.066 535.030, 696.859 535.203, 696.345 536.543 M 747.064 559.291 C 741.958 565.010, 741.614 565.570, 745.396 562 C 749.533 558.095, 754.754 551.921, 753.818 552.041 C 753.643 552.063, 750.604 555.326, 747.064 559.291 M 408.206 554.741 C 411.895 554.932, 418.195 554.934, 422.206 554.743 C 426.218 554.553, 423.200 554.396, 415.500 554.395 C 407.800 554.393, 404.518 554.549, 408.206 554.741 M 547.469 561.250 L 541.500 567.500 547.750 561.531 C 551.188 558.249, 554 555.436, 554 555.281 C 554 554.542, 553.013 555.444, 547.469 561.250 M 793 568.833 C 793 569.633, 789.773 570.066, 782.750 570.209 L 772.500 570.419 782.412 570.747 C 791.574 571.051, 795.541 570.208, 793.683 568.350 C 793.308 567.974, 793 568.192, 793 568.833 M 395.750 570.748 C 403.587 570.917, 416.412 570.917, 424.250 570.748 C 432.087 570.579, 425.675 570.441, 410 570.441 C 394.325 570.441, 387.912 570.579, 395.750 570.748 M 608.728 572.722 C 610.503 572.943, 613.653 572.946, 615.728 572.730 C 617.802 572.513, 616.350 572.333, 612.500 572.328 C 608.650 572.324, 606.952 572.501, 608.728 572.722" stroke="none" fill="#e05448" fill-rule="evenodd"/><path d="M 0 512.001 L 0 1024.002 512.250 1023.751 L 1024.500 1023.500 1024.751 511.750 L 1025.002 0 512.501 0 L 0 0 0 512.001 M 0.496 512.500 C 0.496 794.100, 0.610 909.151, 0.750 768.168 C 0.890 627.186, 0.890 396.786, 0.750 256.168 C 0.610 115.551, 0.496 230.900, 0.496 512.500 M 227 446.996 C 215.664 449.793, 210.895 452.230, 203.888 458.805 C 192.077 469.887, 186.462 482.910, 187.334 497.195 C 187.949 507.270, 190.776 513.261, 199.803 523.620 C 209.675 534.947, 210.379 535.058, 216.782 526.298 C 218.827 523.500, 221.944 519.434, 223.710 517.263 L 226.919 513.314 223.337 509.907 C 216.279 503.194, 213.319 492.947, 216.348 485.718 C 220.312 476.260, 227.605 471.829, 240.500 471.046 L 249.500 470.500 249.802 461 C 249.969 455.775, 249.836 450.038, 249.507 448.250 L 248.909 445 241.705 445.072 C 237.742 445.112, 231.125 445.978, 227 446.996 M 262.007 450.750 C 262.011 453.913, 262.296 459.484, 262.641 463.131 L 263.267 469.763 272.318 470.471 C 282.995 471.306, 291.772 473.818, 298 477.820 C 300.475 479.410, 307.587 485.501, 313.804 491.356 C 320.021 497.210, 325.534 502, 326.054 502 C 327.437 502, 327.178 493.503, 325.562 485.878 C 322.775 472.731, 316.094 463.277, 303.736 454.996 C 293.821 448.352, 281.999 445.024, 268.250 445.008 L 262 445 262.007 450.750 M 647.750 453.743 L 640 454.084 640 476.670 L 640 499.256 636.750 496.584 C 634.962 495.114, 631.025 492.718, 628 491.258 C 623.391 489.034, 621.122 488.601, 614 488.583 C 600.297 488.548, 589.771 493.288, 582.154 502.924 C 571.894 515.904, 570.205 535.711, 578 551.623 C 588.435 572.921, 618.537 579.702, 635.884 564.660 L 640.500 560.658 640.803 565.864 L 641.107 571.071 650.803 570.786 L 660.500 570.500 660.792 516 C 660.953 486.025, 660.813 459.587, 660.481 457.250 C 659.968 453.640, 659.548 453.030, 657.689 453.201 C 656.485 453.312, 652.013 453.556, 647.750 453.743 M 779.250 453.718 L 773 454.095 773 512.583 L 773 571.070 783.250 570.785 L 793.500 570.500 793.500 512 L 793.500 453.500 789.500 453.420 C 787.300 453.376, 782.688 453.510, 779.250 453.718 M 816.898 455.283 C 814.746 456.728, 812.976 459.070, 812.070 461.668 C 810.792 465.337, 810.823 466.248, 812.368 470.294 C 814.977 477.126, 821.233 479.601, 828.364 476.621 C 836.999 473.013, 838.636 462.888, 831.593 456.644 C 826.847 452.436, 821.828 451.971, 816.898 455.283 M 381.854 458.683 C 381.626 459.682, 381.611 485.392, 381.819 515.816 L 382.198 571.132 411.849 570.766 C 445.528 570.350, 447.024 570.070, 455.572 562.593 C 462.960 556.130, 466.277 549.389, 466.401 540.588 C 466.535 530.979, 464.231 525.292, 457.893 519.594 C 455.164 517.140, 451.350 514.610, 449.417 513.973 L 445.903 512.813 450.261 510.049 C 459.651 504.094, 464.676 494.396, 463.737 484.039 C 462.807 473.782, 456.591 465.432, 446 460.211 L 440.500 457.500 411.384 457.183 C 383.921 456.884, 382.245 456.970, 381.854 458.683 M 403.750 473.551 C 403.337 473.981, 403 481.233, 403 489.667 L 403 505 416.032 505 C 430.519 505, 433.696 504.165, 438.454 499.106 C 440.950 496.452, 441.462 494.999, 441.758 489.733 C 442.032 484.867, 441.684 482.825, 440.172 480.420 C 436.929 475.261, 432.306 473.794, 417.567 473.250 C 410.380 472.985, 404.163 473.120, 403.750 473.551 M 510 489.319 C 502.215 491.130, 497.613 493.588, 491.432 499.236 C 477.995 511.517, 474.403 533.993, 483.047 551.697 C 494.302 574.747, 528.270 580.284, 547.264 562.167 C 553.219 556.486, 559.295 548.286, 558.500 547 C 558.252 546.598, 553.476 546.050, 547.887 545.780 L 537.726 545.291 533.113 550.052 C 528.128 555.198, 522.093 557.619, 517.024 556.505 C 509.449 554.842, 501.016 546.538, 499.515 539.265 L 498.847 536.029 529.674 535.765 L 560.500 535.500 560.330 527 C 560.139 517.486, 558.555 512.120, 553.970 505.457 C 544.893 492.263, 526.450 485.494, 510 489.319 M 709.043 489.078 C 687.598 492.869, 674.488 511.231, 676.314 534.914 C 677.157 545.842, 680.051 552.861, 686.657 559.996 C 701.658 576.199, 728.459 577.486, 744.553 562.777 C 750.525 557.320, 756 550.077, 756 547.636 C 756 546.417, 754.064 546.073, 745.750 545.816 L 735.500 545.500 731.881 549.156 C 724.889 556.222, 717.360 558.321, 710.654 555.075 C 703.436 551.580, 697 543.226, 697 537.351 C 697 536.246, 702.571 536, 727.613 536 L 758.227 536 757.807 525.750 C 757.456 517.166, 756.965 514.687, 754.787 510.500 C 748.655 498.713, 734.512 489.392, 721.500 488.561 C 717.650 488.315, 712.044 488.548, 709.043 489.078 M 813 530.500 L 813 571.070 823.250 570.785 L 833.500 570.500 833.500 530.500 L 833.500 490.500 823.250 490.215 L 813 489.930 813 530.500 M 299.866 496.251 C 298.618 498.038, 295.967 501.525, 293.975 504 C 286.365 513.456, 286.425 512.956, 292.043 519.956 C 294.765 523.348, 297.261 527.333, 297.589 528.812 C 297.917 530.290, 298.386 532.246, 298.631 533.157 C 298.875 534.068, 298.569 536.826, 297.950 539.286 C 295.396 549.429, 285.855 555.762, 272.326 556.295 L 264.500 556.604 264.220 568.159 L 263.939 579.714 269.293 580.266 C 281.320 581.508, 298.276 577.546, 307.096 571.434 C 312.916 567.400, 319.516 558.621, 323.209 550 C 326.100 543.251, 326.426 541.494, 326.461 532.452 C 326.498 522.810, 326.347 522.094, 322.730 514.772 C 319.877 508.996, 317.325 505.642, 312.230 500.973 C 302.940 492.458, 302.604 492.330, 299.866 496.251 M 511.500 506.896 C 506.844 509.051, 502.576 513.313, 501.064 517.315 C 498.844 523.191, 498.263 523.016, 519.500 522.860 C 530.225 522.781, 539 522.397, 539 522.007 C 539 520.034, 536.391 514.133, 534.282 511.338 C 529.734 505.309, 519.315 503.277, 511.500 506.896 M 710.327 506.099 C 706.394 507.237, 699.763 514.609, 698.257 519.516 L 697.131 523.185 716.815 522.470 C 727.642 522.077, 736.594 521.679, 736.709 521.585 C 737.309 521.098, 732.008 511.255, 730.355 509.788 C 725.544 505.517, 717.473 504.030, 710.327 506.099 M 608.422 507.356 C 593.080 514.350, 589.142 535.704, 600.864 548.342 C 609.696 557.862, 625.126 557.244, 634.383 546.998 C 643.958 536.399, 641.087 517.276, 628.777 509.666 C 623.152 506.188, 613.409 505.082, 608.422 507.356 M 402.993 530.386 C 402.989 535.949, 402.696 543.569, 402.342 547.319 L 401.698 554.139 418.279 553.819 C 433.179 553.532, 435.141 553.291, 437.619 551.438 C 444.868 546.019, 446.855 537.831, 442.815 530.027 C 439.109 522.867, 434.695 521.260, 417.250 520.717 L 403 520.273 402.993 530.386 M 186.676 531.750 C 188.383 550.238, 195.252 563.044, 207.977 571.465 C 217.743 577.927, 222.442 579.238, 237.750 579.771 L 251 580.232 251 568.116 L 251 556 242.710 556 C 226.173 556, 217.241 551.954, 199.569 536.461 C 193.007 530.707, 187.302 526, 186.891 526 C 186.481 526, 186.383 528.587, 186.676 531.750" stroke="none" fill="#f2f2f2" fill-rule="evenodd"/><path d="M 640.324 455.597 C 639.987 456.475, 640.033 466.858, 640.425 478.669 C 641.229 502.850, 641.751 501.573, 633.682 495.150 C 628.055 490.670, 623.685 489.491, 613 489.570 C 599.879 489.666, 593.621 492.153, 585.361 500.549 C 576.496 509.562, 574.545 514.964, 574.545 530.500 C 574.545 540.706, 574.891 543.365, 576.857 548.285 C 580.095 556.383, 588.214 564.903, 596.218 568.599 C 601.825 571.188, 603.575 571.500, 612.500 571.500 C 621.342 571.500, 623.137 571.187, 628 568.798 C 631.025 567.312, 635.413 564.442, 637.750 562.419 L 642 558.741 642 564.371 L 642 570 651 570 L 660 570 660 512 L 660 454 650.469 454 C 642.662 454, 640.826 454.289, 640.324 455.597 M 773.880 454.250 C 773.814 454.387, 773.603 480.488, 773.413 512.250 L 773.066 570 782.926 570 C 790.587 570, 792.909 569.679, 793.339 568.560 C 793.643 567.767, 793.619 541.667, 793.285 510.560 L 792.679 454 783.340 454 C 778.203 454, 773.946 454.113, 773.880 454.250 M 815.400 457.400 C 812.573 460.227, 812.001 461.534, 812.004 465.150 C 812.009 471.038, 814.913 475.606, 819.448 476.858 C 827.374 479.046, 835 473.548, 835 465.646 C 835 458.665, 829.973 454, 822.450 454 C 819.632 454, 818.025 454.775, 815.400 457.400 M 385.250 457.723 L 382 458.127 382 514.063 L 382 570 410.184 570 C 443.558 570, 447.135 569.381, 455.082 562.237 C 457.815 559.779, 461.277 555.683, 462.776 553.134 C 465.196 549.017, 465.500 547.497, 465.500 539.500 C 465.500 531.534, 465.191 529.975, 462.813 525.930 C 460.086 521.291, 455.563 517.583, 448.713 514.371 L 444.927 512.595 448.531 510.419 C 454.053 507.087, 457.937 502.988, 460.692 497.589 C 462.856 493.347, 463.150 491.633, 462.849 485.010 C 462.556 478.571, 462.014 476.557, 459.465 472.434 C 455.327 465.741, 447.630 460.531, 438.969 458.561 C 433.733 457.370, 426.935 457.038, 410.303 457.160 C 398.311 457.248, 387.038 457.502, 385.250 457.723 M 402.879 474.815 C 402.396 476.088, 402 483.626, 402 491.565 L 402 506 412.951 506 C 418.974 506, 426.187 505.510, 428.980 504.911 C 443.353 501.829, 447.913 485.836, 437.031 476.680 C 433.545 473.746, 430.040 473.133, 414.629 472.762 C 404.073 472.508, 403.733 472.567, 402.879 474.815 M 508.024 490.546 C 496.669 493.715, 488.104 500.969, 482.690 512 C 479.631 518.233, 479.502 518.992, 479.542 530.500 C 479.593 545.215, 481.574 551.185, 489.166 559.491 C 497.697 568.826, 513.697 574.333, 525.682 572.060 C 536.094 570.086, 541.373 567.311, 548.182 560.234 C 556.707 551.372, 558.831 548.139, 556.921 546.930 C 556.139 546.435, 551.450 546.024, 546.500 546.015 L 537.500 546 534.615 549.616 C 528.247 557.597, 517.360 559.096, 508.757 553.177 C 503.293 549.418, 500.004 544.449, 499.248 538.811 L 498.694 534.678 529.478 535.281 L 560.262 535.884 559.792 526.135 C 559.376 517.482, 558.947 515.680, 555.977 510.109 C 551.835 502.337, 543.550 494.747, 536.045 491.849 C 528.794 489.050, 515.587 488.436, 508.024 490.546 M 704.854 490.786 C 685.227 496.096, 673.848 515.177, 676.941 537.592 C 677.541 541.941, 679.128 547.751, 680.468 550.503 C 685.929 561.713, 697.581 569.827, 711.325 571.989 C 718.887 573.178, 722.495 572.796, 731.798 569.820 C 738.921 567.541, 747.606 560.322, 753 552.197 L 756.118 547.500 750.809 546.849 C 747.889 546.491, 743.226 546.153, 740.446 546.099 C 735.880 546.010, 735.060 546.350, 731.946 549.622 C 722.366 559.691, 709.990 559.096, 700.757 548.123 C 697.861 544.681, 695.474 537.660, 696.588 535.857 C 697.064 535.088, 706.247 534.871, 727.383 535.130 L 757.500 535.500 757.468 526.500 C 757.442 518.893, 757.023 516.607, 754.765 511.730 C 751.359 504.377, 743.837 497.029, 735.522 492.936 C 727.178 488.829, 715.193 487.988, 704.854 490.786 M 813.007 523.750 C 813.011 541.763, 813.301 559.538, 813.652 563.250 L 814.289 570 823.645 570 L 833 570 833 530.500 L 833 491 823 491 L 813 491 813.007 523.750 M 513.728 505.283 C 506.478 507.623, 501.127 513.383, 499.595 520.500 L 498.949 523.500 518.224 523.212 C 528.826 523.053, 538.038 522.739, 538.695 522.514 C 540.287 521.969, 538.811 516.822, 535.777 512.337 C 531.656 506.245, 521.157 502.886, 513.728 505.283 M 711.704 505.393 C 704.432 507.396, 697 515.833, 697 522.085 C 697 523.976, 697.395 524.171, 700.125 523.625 C 701.844 523.281, 710.900 523, 720.250 523 L 737.250 523 736.655 520.023 C 735.733 515.417, 731.021 509.052, 727.023 507.012 C 721.845 504.370, 717.200 503.879, 711.704 505.393 M 610.821 506.449 C 600.064 509.222, 594 517.840, 594 530.353 C 594 540.090, 597.348 547.001, 604.350 551.716 C 610.331 555.745, 614.749 556.598, 621.639 555.056 C 628.554 553.509, 634.701 548.821, 637.857 542.689 C 641.173 536.245, 641.376 525.409, 638.291 519.487 C 632.781 508.908, 621.694 503.645, 610.821 506.449 M 402 537.619 L 402 555.239 417.750 554.810 C 429.910 554.479, 434.221 554, 436.662 552.711 C 446.803 547.352, 448.611 533.709, 440.219 525.868 C 435.267 521.242, 429.705 520, 413.951 520 L 402 520 402 537.619" stroke="none" fill="#090909" fill-rule="evenodd"/></svg>