<?xml version="1.0" standalone="no"?>
<!DOCTYPE svg PUBLIC "-//W3C//DTD SVG 20010904//EN"
 "http://www.w3.org/TR/2001/REC-SVG-20010904/DTD/svg10.dtd">
<svg version="1.0" xmlns="http://www.w3.org/2000/svg"
 width="500.000000pt" height="500.000000pt" viewBox="0 0 500.000000 500.000000"
 preserveAspectRatio="xMidYMid meet">

<g transform="translate(0.000000,500.000000) scale(0.100000,-0.100000)"
fill="#000000" stroke="none">
<path d="M1071 2799 c-43 -17 -83 -52 -112 -97 -24 -38 -29 -57 -29 -109 0
-36 6 -76 14 -91 20 -38 85 -98 94 -86 4 5 20 24 36 41 l30 33 -22 22 c-76 83
-23 198 92 198 32 0 33 0 34 50 l1 50 -57 -1 c-31 0 -68 -5 -81 -10z"/>
<path d="M1290 2761 l0 -49 63 -7 c73 -8 110 -25 169 -81 67 -63 72 -64 66
-17 -3 22 -22 66 -42 97 -46 71 -110 106 -198 106 l-58 0 0 -49z"/>
<path d="M3130 2670 l0 -110 -40 26 c-74 49 -199 27 -248 -43 -64 -93 -53
-229 26 -295 67 -56 163 -62 226 -14 l35 26 3 -23 c3 -19 10 -22 51 -25 l47
-3 0 285 0 286 -50 0 -50 0 0 -110z m-38 -178 c73 -68 24 -202 -74 -202 -122
0 -158 167 -48 223 43 21 85 14 122 -21z"/>
<path d="M3780 2495 l0 -285 50 0 50 0 0 285 0 285 -50 0 -50 0 0 -285z"/>
<path d="M3976 2764 c-21 -21 -20 -57 2 -77 53 -48 135 11 97 69 -18 29 -75
33 -99 8z"/>
<path d="M1860 2490 l0 -282 159 4 c177 3 191 8 239 79 42 61 16 161 -49 191
l-26 12 38 35 c49 48 59 95 30 153 -35 73 -62 82 -238 86 l-153 4 0 -282z
m280 175 c13 -12 20 -31 20 -55 0 -55 -25 -72 -115 -78 l-75 -5 0 83 0 83 75
-5 c53 -4 81 -10 95 -23z m-15 -220 c57 -23 69 -90 24 -131 -14 -12 -42 -19
-99 -22 l-80 -5 0 87 0 86 60 0 c33 0 76 -7 95 -15z"/>
<path d="M2500 2610 c-92 -17 -150 -83 -158 -175 -6 -77 4 -120 41 -162 94
-107 270 -92 333 30 l15 27 -53 0 c-39 0 -57 -5 -74 -21 -16 -15 -36 -22 -65
-22 -35 0 -48 6 -71 32 -52 58 -45 61 122 61 l150 0 0 43 c-1 124 -113 212
-240 187z m102 -100 c14 -11 28 -29 31 -40 5 -19 1 -20 -94 -20 -64 0 -99 4
-99 11 0 6 13 24 29 40 36 36 95 40 133 9z"/>
<path d="M3480 2613 c-57 -9 -91 -26 -124 -63 -85 -94 -69 -243 33 -315 38
-27 51 -30 115 -30 63 0 78 4 112 27 34 24 74 73 74 92 0 3 -25 6 -55 6 -32 0
-55 -4 -55 -11 0 -5 -16 -17 -34 -24 -51 -21 -105 -2 -128 45 l-18 35 147 3
c103 2 149 6 155 15 9 15 -1 84 -18 118 -18 35 -79 88 -109 94 -49 10 -70 12
-95 8z m95 -108 c47 -46 36 -55 -70 -55 -98 0 -109 6 -82 41 35 46 114 53 152
14z"/>
<path d="M3970 2410 l0 -200 50 0 50 0 0 200 0 200 -50 0 -50 0 0 -200z"/>
<path d="M1465 2557 c-10 -12 -26 -32 -37 -43 -19 -21 -19 -22 5 -48 72 -77
21 -186 -87 -186 l-46 0 0 -55 0 -55 38 0 c99 0 186 51 227 133 40 81 29 174
-28 235 -37 39 -51 43 -72 19z"/>
<path d="M931 2358 c17 -106 102 -176 226 -186 l63 -5 0 57 0 56 -52 0 c-64 0
-117 25 -184 85 -27 24 -52 44 -55 45 -3 0 -2 -23 2 -52z"/>
</g>
</svg>
